<svg xmlns="http://www.w3.org/2000/svg" width="760" height="460" viewBox="0 0 760 460">
  <rect width="100%" height="100%" fill="white"/>
  <text x="380.0" y="24" text-anchor="middle" font-size="18" font-family="Arial, sans-serif" fill="#111827">Q3 n Sweep: Mean Per-Source Time</text>
  <line x1="78" y1="390.00" x2="730" y2="390.00" stroke="#e5e7eb"/><text x="68" y="394.00" text-anchor="end" font-size="12" fill="#374151">276.2</text><line x1="78" y1="320.40" x2="730" y2="320.40" stroke="#e5e7eb"/><text x="68" y="324.40" text-anchor="end" font-size="12" fill="#374151">283.5</text><line x1="78" y1="250.80" x2="730" y2="250.80" stroke="#e5e7eb"/><text x="68" y="254.80" text-anchor="end" font-size="12" fill="#374151">290.7</text><line x1="78" y1="181.20" x2="730" y2="181.20" stroke="#e5e7eb"/><text x="68" y="185.20" text-anchor="end" font-size="12" fill="#374151">298.0</text><line x1="78" y1="111.60" x2="730" y2="111.60" stroke="#e5e7eb"/><text x="68" y="115.60" text-anchor="end" font-size="12" fill="#374151">305.3</text><line x1="78" y1="42.00" x2="730" y2="42.00" stroke="#e5e7eb"/><text x="68" y="46.00" text-anchor="end" font-size="12" fill="#374151">312.6</text><line x1="78.00" y1="390" x2="78.00" y2="395" stroke="#374151"/><text x="78.00" y="412" text-anchor="middle" font-size="12" fill="#374151">6</text><line x1="186.67" y1="390" x2="186.67" y2="395" stroke="#374151"/><text x="186.67" y="412" text-anchor="middle" font-size="12" fill="#374151">7</text><line x1="295.33" y1="390" x2="295.33" y2="395" stroke="#374151"/><text x="295.33" y="412" text-anchor="middle" font-size="12" fill="#374151">8</text><line x1="404.00" y1="390" x2="404.00" y2="395" stroke="#374151"/><text x="404.00" y="412" text-anchor="middle" font-size="12" fill="#374151">9</text><line x1="512.67" y1="390" x2="512.67" y2="395" stroke="#374151"/><text x="512.67" y="412" text-anchor="middle" font-size="12" fill="#374151">10</text><line x1="621.33" y1="390" x2="621.33" y2="395" stroke="#374151"/><text x="621.33" y="412" text-anchor="middle" font-size="12" fill="#374151">11</text><line x1="730.00" y1="390" x2="730.00" y2="395" stroke="#374151"/><text x="730.00" y="412" text-anchor="middle" font-size="12" fill="#374151">12</text>
  <line x1="78" y1="42" x2="78" y2="390" stroke="#374151"/>
  <line x1="78" y1="390" x2="730" y2="390" stroke="#374151"/>
  <polyline points="78.00,321.23 186.67,354.43 295.33,305.61 404.00,257.18 512.67,193.99 621.33,129.91 730.00,66.00" fill="none" stroke="#d62728" stroke-width="2.5"/><circle cx="78.00" cy="321.23" r="4" fill="#d62728"/><circle cx="186.67" cy="354.43" r="4" fill="#d62728"/><circle cx="295.33" cy="305.61" r="4" fill="#d62728"/><circle cx="404.00" cy="257.18" r="4" fill="#d62728"/><circle cx="512.67" cy="193.99" r="4" fill="#d62728"/><circle cx="621.33" cy="129.91" r="4" fill="#d62728"/><circle cx="730.00" cy="66.00" r="4" fill="#d62728"/><polyline points="78.00,224.00 186.67,266.82 295.33,366.00 404.00,338.68 512.67,332.86 621.33,275.27 730.00,233.31" fill="none" stroke="#1f77b4" stroke-width="2.5"/><circle cx="78.00" cy="224.00" r="4" fill="#1f77b4"/><circle cx="186.67" cy="266.82" r="4" fill="#1f77b4"/><circle cx="295.33" cy="366.00" r="4" fill="#1f77b4"/><circle cx="404.00" cy="338.68" r="4" fill="#1f77b4"/><circle cx="512.67" cy="332.86" r="4" fill="#1f77b4"/><circle cx="621.33" cy="275.27" r="4" fill="#1f77b4"/><circle cx="730.00" cy="233.31" r="4" fill="#1f77b4"/>
  <text x="380.0" y="422" text-anchor="middle" font-size="14" font-family="Arial, sans-serif" fill="#111827">Outer search point count n</text>
  <text x="22" y="230.0" text-anchor="middle" font-size="14" font-family="Arial, sans-serif" fill="#111827" transform="rotate(-90 22 230.0)">Mean T/N (s/source)</text>
  <line x1="78" y1="436" x2="102" y2="436" stroke="#d62728" stroke-width="2.5"/><text x="110" y="440" font-size="13" fill="#111827">V4</text><line x1="198" y1="436" x2="222" y2="436" stroke="#1f77b4" stroke-width="2.5"/><text x="230" y="440" font-size="13" fill="#111827">V6</text>
</svg>
